<svg width="139" height="38" viewBox="0 0 139 38" fill="none" xmlns="http://www.w3.org/2000/svg">
<path d="M15.3121 7.24476L12.5347 7.25287L12.1437 4.77131C11.7755 4.40554 11.3115 4.11677 10.7523 3.9049C10.1928 3.69346 9.53329 3.58855 8.77395 3.59072C7.15274 3.59558 5.9066 4.18804 5.03554 5.3681C4.16437 6.54826 3.73176 8.08532 3.73717 9.97951L3.73911 10.6323C3.74485 12.5264 4.18449 14.0653 5.05825 15.2485C5.93213 16.4324 7.16258 17.0214 8.74972 17.0167C9.48343 17.015 10.1551 16.906 10.7645 16.6909C11.3738 16.4762 11.8446 16.1846 12.1762 15.8164L12.5529 13.3322L15.3303 13.3241L15.3412 17.0101C14.5927 17.8829 13.637 18.5785 12.474 19.0984C11.3107 19.6178 10.0081 19.8801 8.56608 19.8846C6.06613 19.8919 4.01566 19.0319 2.415 17.3044C0.814447 15.5768 0.00989912 13.3567 0.00200397 10.6432L5.72261e-05 10.0163C-0.00772977 7.31149 0.779189 5.08636 2.36092 3.3411C3.94287 1.59562 5.99226 0.719369 8.50941 0.711906C9.9513 0.70758 11.2535 0.965957 12.4153 1.48758C13.5771 2.00877 14.5392 2.69921 15.3012 3.55881L15.3121 7.24476Z" fill="#030404"/>
<path d="M22.2914 17.1547C22.839 17.153 23.3368 17.0335 23.7842 16.7958C24.2316 16.5575 24.5793 16.2599 24.8272 15.9022L24.821 13.8481L22.9662 13.8536C22.1945 13.8562 21.61 14.0387 21.2125 14.4001C20.8153 14.7624 20.6173 15.1971 20.6189 15.7032C20.6203 16.16 20.7685 16.5159 21.0641 16.7723C21.3593 17.0288 21.7685 17.1564 22.2914 17.1547ZM25.4481 19.5728C25.3477 19.3492 25.2599 19.1191 25.1846 18.8826C25.1091 18.6462 25.0503 18.4085 25.0081 18.1673C24.578 18.6666 24.0542 19.071 23.437 19.3798C22.8197 19.6881 22.1127 19.8442 21.3159 19.8468C19.9964 19.8506 18.9475 19.4946 18.1694 18.7793C17.3911 18.0636 17.0005 17.0875 16.9966 15.8508C16.993 14.5894 17.4964 13.6129 18.5068 12.921C19.5173 12.2291 21.0018 11.8803 22.9605 11.8743L24.8153 11.8688L24.8113 10.5492C24.8093 9.90193 24.6212 9.40054 24.2467 9.04482C23.8722 8.689 23.3198 8.51206 22.5896 8.51423C22.1745 8.51552 21.8054 8.56462 21.4819 8.66099C21.1585 8.75724 20.8973 8.87232 20.6988 9.00567L20.4664 10.4504L17.7277 10.4584L17.7313 7.47055C18.3939 7.02064 19.1544 6.64059 20.0123 6.33105C20.8703 6.02163 21.8056 5.86513 22.8181 5.8621C24.4864 5.85724 25.8422 6.26216 26.8862 7.07612C27.9301 7.89072 28.4545 9.05326 28.459 10.5637L28.4753 16.1281C28.4759 16.3356 28.4785 16.5308 28.4834 16.7133C28.4878 16.8957 28.503 17.0701 28.5285 17.2359L29.6367 17.3822L29.6433 19.5605L25.4481 19.5728Z" fill="#030404"/>
<path d="M30.9102 17.3774L32.6518 16.9984L32.6272 8.64567L30.6967 8.27784L30.6901 6.08699L36.0057 6.0712L36.1732 8.03752C36.4864 7.33962 36.8918 6.79485 37.3885 6.40312C37.8852 6.01172 38.4615 5.81499 39.117 5.81304C39.308 5.81239 39.5092 5.82645 39.7209 5.855C39.9327 5.88345 40.109 5.91806 40.2504 5.95894L39.8743 9.27166L38.3803 9.23856C37.849 9.24018 37.4095 9.34552 37.0617 9.55383C36.7135 9.76245 36.4488 10.0576 36.2674 10.4401L36.2867 16.9878L38.0308 17.3565L38.0372 19.5348L30.9166 19.5557L30.9102 17.3774Z" fill="#030404"/>
<path d="M40.7199 2.80612L40.7133 0.615164L46.2903 0.598724L46.3402 16.9594L48.0966 17.3282L48.103 19.5065L40.9576 19.5273L40.951 17.349L42.7051 16.9701L42.6628 3.17384L40.7199 2.80612Z" fill="#030404"/>
<path d="M55.2934 8.5674C54.6212 8.56924 54.0906 8.82805 53.7022 9.34394C53.3137 9.85961 53.0749 10.5364 52.9862 11.375L53.0236 11.4369L57.4802 11.4237L57.4794 11.1001C57.477 10.3287 57.2948 9.71285 56.9325 9.2533C56.5701 8.79387 56.0237 8.56502 55.2934 8.5674ZM55.2936 19.7455C53.3515 19.751 51.7975 19.1331 50.6322 17.8917C49.4666 16.6503 48.8809 15.0707 48.8754 13.154L48.8739 12.656C48.8679 10.6559 49.4127 9.00672 50.5087 7.70888C51.6044 6.41116 53.0776 5.76343 54.9285 5.76646C56.7459 5.76094 58.1583 6.30463 59.1658 7.39719C60.173 8.48953 60.6798 9.96949 60.6854 11.8369L60.6911 13.8162L52.6494 13.84L52.6245 13.9144C52.6936 14.8024 52.9923 15.5318 53.5212 16.1029C54.0499 16.6741 54.7665 16.9582 55.6709 16.9556C56.4761 16.953 57.144 16.8706 57.6745 16.7069C58.2053 16.5436 58.7853 16.2867 59.4152 15.9362L60.4052 18.1741C59.8505 18.6155 59.1317 18.9868 58.2487 19.2884C57.3658 19.5895 56.3806 19.7421 55.2936 19.7455Z" fill="#030404"/>
<path d="M66.6713 2.35587L66.681 5.97736L69.0463 5.97033L69.054 8.5223L66.6887 8.52933L66.7089 15.3889C66.7104 15.9115 66.8195 16.2845 67.036 16.5078C67.2522 16.7315 67.5431 16.8425 67.9082 16.8412C68.1572 16.8408 68.3752 16.8297 68.5617 16.8085C68.7486 16.7872 68.9579 16.7511 69.1901 16.7005L69.509 19.3265C69.1029 19.452 68.7006 19.5468 68.3024 19.6102C67.9042 19.6736 67.4727 19.7059 67.0081 19.7077C65.7548 19.711 64.789 19.3696 64.1107 18.6827C63.4321 17.9958 63.0908 16.9054 63.0863 15.4118L63.0661 8.54015L61.8019 8.54588L61.7943 5.99391L63.0584 5.98817L63.0487 2.36668L66.6713 2.35587Z" fill="#030404"/>
<path d="M73.8773 12.8269C73.8808 14.0551 74.0995 15.0405 74.5332 15.7817C74.967 16.5235 75.6651 16.8926 76.628 16.8897C77.5657 16.8866 78.2515 16.5116 78.6849 15.763C79.1185 15.0149 79.3335 14.0309 79.3298 12.8107L79.329 12.5492C79.3254 11.3541 79.1026 10.3801 78.6604 9.6258C78.2184 8.87198 77.5243 8.49647 76.5783 8.49917C75.6322 8.50199 74.9443 8.88171 74.5152 9.63813C74.0857 10.3949 73.8728 11.3703 73.8764 12.5653L73.8773 12.8269ZM70.2415 12.5762C70.2356 10.568 70.7929 8.92108 71.9135 7.63547C73.0343 6.35007 74.5864 5.70429 76.5699 5.69834C78.5618 5.6925 80.1217 6.32704 81.2503 7.6014C82.3785 8.87641 82.9457 10.5223 82.9516 12.5386L82.9525 12.8001C82.9584 14.8252 82.4008 16.4762 81.2802 17.7538C80.1593 19.0305 78.6113 19.6722 76.6364 19.6782C74.6362 19.6841 73.072 19.0517 71.9437 17.7815C70.8152 16.5103 70.2481 14.8627 70.2421 12.8377L70.2415 12.5762Z" fill="#030404"/>
<path d="M83.8812 17.2156L85.6229 16.8366L85.5983 8.48384L83.6677 8.11591L83.6611 5.92506L88.9767 5.90938L89.1441 7.8385C89.5902 7.14848 90.1406 6.61129 90.7953 6.22767C91.4495 5.84405 92.1833 5.651 92.997 5.6484C94.3579 5.6444 95.4213 6.0689 96.1875 6.92136C96.9534 7.77382 97.3393 9.11308 97.3446 10.9389L97.3621 16.8018L99.106 17.1705L99.1126 19.3488L92.1662 19.3696L92.1596 17.1913L93.7147 16.8128L93.6974 10.9622C93.6947 10.0576 93.5101 9.41688 93.144 9.04029C92.7775 8.6637 92.2251 8.4766 91.4864 8.47876C91.0051 8.48017 90.5737 8.57913 90.1929 8.7751C89.8113 8.9714 89.4928 9.24827 89.2366 9.60593L89.2578 16.826L90.728 17.1955L90.7344 19.3739L83.8878 19.3939L83.8812 17.2156Z" fill="#030404"/>
<path d="M33.8354 24.6374L33.839 25.8553L32.76 26.0665L32.7755 31.3265C32.7775 31.9912 32.9577 32.4877 33.3162 32.8167C33.6748 33.1454 34.1656 33.3085 34.7885 33.3066C35.4206 33.3049 35.9161 33.1399 36.275 32.8109C36.634 32.4827 36.8126 31.9834 36.8106 31.3143L36.795 26.0543L35.7215 25.8498L35.7181 24.6319L39.8913 24.6196L39.8949 25.8375L38.8159 26.0484L38.8315 31.3084C38.8348 32.4389 38.4647 33.3125 37.7214 33.928C36.978 34.5438 36.002 34.8536 34.7931 34.8572C33.5889 34.861 32.6156 34.5568 31.8731 33.9453C31.1309 33.3341 30.758 32.463 30.7546 31.3325L30.739 26.0724L29.6656 25.8679L29.662 24.6499L30.7348 24.6468L32.7558 24.6409L33.8354 24.6374Z" fill="#030404"/>
<path d="M40.4504 33.4838L41.4187 33.2735L41.405 28.6297L40.3317 28.4252L40.3281 27.2069L43.2834 27.1982L43.3765 28.2708C43.6245 27.887 43.9304 27.5886 44.2944 27.3752C44.6582 27.1615 45.0662 27.0544 45.5185 27.0532C46.2751 27.0508 46.8665 27.2869 47.2924 27.7605C47.7182 28.2345 47.9327 28.9793 47.9357 29.9943L47.9453 33.2541L48.9149 33.4586L48.9184 34.6699L45.0566 34.6814L45.053 33.4701L45.9176 33.2601L45.9078 30.0073C45.9064 29.5045 45.8038 29.1483 45.6001 28.9387C45.3965 28.7299 45.0893 28.6254 44.6788 28.6266C44.4111 28.6273 44.1712 28.6825 43.9594 28.7917C43.7475 28.9004 43.5702 29.0545 43.4279 29.2535L43.4398 33.2675L44.257 33.4725L44.2606 34.6837L40.454 34.6951L40.4504 33.4838Z" fill="#030404"/>
<path d="M52.4692 25.3786L50.4483 25.3845L50.4437 23.8687L52.4647 23.8627L52.4692 25.3786ZM49.4962 33.4572L50.4715 33.2467L50.4577 28.603L49.3775 28.3986L49.3739 27.1801L52.4745 27.171L52.4925 33.2409L53.4621 33.4453L53.4655 34.6566L49.4998 34.6684L49.4962 33.4572Z" fill="#030404"/>
<path d="M56.978 28.375L56.2724 28.5085L57.272 31.8555L57.4056 32.5608H57.4472L57.5904 31.8547L58.5563 28.509L57.8363 28.3726L57.8327 27.1543L61.2309 27.144L61.2344 28.3623L60.5841 28.468L58.3945 34.6413L56.4636 34.6469L54.2306 28.4869L53.5797 28.3852L53.5762 27.1668L56.9745 27.1566L56.978 28.375Z" fill="#030404"/>
<path d="M64.8838 28.5515C64.51 28.5527 64.2151 28.6965 63.9992 28.983C63.7831 29.2698 63.6504 29.6461 63.6011 30.1122L63.6219 30.1469L66.0996 30.1398L66.0992 29.9597C66.0979 29.5307 65.9964 29.1883 65.7951 28.9329C65.5936 28.6771 65.2897 28.5503 64.8838 28.5515ZM65.0821 34.7658C64.0025 34.769 63.1385 34.4258 62.4906 33.7355C61.8425 33.0454 61.5169 32.1671 61.5137 31.1013L61.513 30.8247C61.5097 29.7127 61.8127 28.7958 62.4219 28.0739C63.0311 27.3528 63.8501 26.9922 64.8791 26.9943C65.8896 26.991 66.675 27.2933 67.2351 27.9005C67.7951 28.5081 68.0768 29.3309 68.0798 30.3692L68.083 31.4698L63.612 31.4827L63.5983 31.524C63.6367 32.0179 63.8027 32.4237 64.0967 32.7409C64.3906 33.0585 64.7891 33.2165 65.292 33.2149C65.7395 33.2133 66.1109 33.1676 66.4059 33.0766C66.7008 32.986 67.0235 32.843 67.3735 32.6483L67.9242 33.8923C67.6156 34.1378 67.216 34.3442 66.7251 34.5121C66.2343 34.6795 65.6865 34.7643 65.0821 34.7658Z" fill="#030404"/>
<path d="M68.8856 33.3969L69.8539 33.1865L69.8402 28.5428L68.7668 28.3384L68.7632 27.1199L71.7185 27.1113L71.8116 28.2043C71.9858 27.8165 72.2111 27.5136 72.4873 27.2957C72.7635 27.0782 73.0838 26.9689 73.4484 26.9679C73.5545 26.9674 73.6664 26.9753 73.7841 26.991C73.9017 27.0072 73.9998 27.0261 74.0784 27.049L73.8693 28.8907L73.0387 28.8722C72.7434 28.873 72.499 28.9317 72.3056 29.0475C72.1121 29.1634 71.9648 29.3276 71.864 29.54L71.8748 33.1806L72.8443 33.3855L72.8479 34.5967L68.8891 34.6082L68.8856 33.3969Z" fill="#030404"/>
<path d="M80.4894 29.6591L79.1328 29.663L78.9154 28.7295C78.7767 28.6192 78.6023 28.5274 78.3921 28.4541C78.1818 28.3809 77.9498 28.3445 77.6962 28.3454C77.3409 28.3466 77.0597 28.4269 76.8526 28.5865C76.6454 28.7465 76.5421 28.9466 76.5429 29.1866C76.5435 29.4127 76.6433 29.6004 76.8421 29.7493C77.0409 29.899 77.4382 30.0306 78.0336 30.1438C78.9617 30.3258 79.65 30.5949 80.0986 30.9511C80.5471 31.3077 80.7724 31.7995 80.7743 32.4267C80.7763 33.1005 80.4884 33.6515 79.9106 34.0798C79.3328 34.5085 78.571 34.724 77.6252 34.7272C77.0483 34.7288 76.5185 34.646 76.036 34.4789C75.5533 34.3119 75.1247 34.0723 74.75 33.7594L74.7243 32.0776L76.1361 32.0737L76.4159 33.0489C76.5361 33.1499 76.7001 33.2244 76.9079 33.2724C77.1158 33.3197 77.3326 33.3437 77.5586 33.3429C77.9694 33.3417 78.2818 33.2673 78.4959 33.1187C78.7099 32.9702 78.8167 32.7696 78.8158 32.5159C78.8153 32.2944 78.7062 32.1029 78.4889 31.9421C78.2715 31.7814 77.8721 31.6395 77.2903 31.5165C76.4084 31.3393 75.7422 31.0748 75.2912 30.723C74.8403 30.3711 74.614 29.8911 74.6121 29.282C74.6103 28.6547 74.8672 28.1129 75.3825 27.6566C75.898 27.2007 76.6333 26.9713 77.5884 26.9686C78.1697 26.9667 78.7201 27.0434 79.2398 27.1988C79.7593 27.3544 80.167 27.5537 80.4631 27.7973L80.4894 29.6591Z" fill="#030404"/>
<path d="M84.5945 25.2797L82.5734 25.2856L82.5689 23.7697L84.5899 23.7638L84.5945 25.2797ZM81.6215 33.3587L82.5967 33.1479L82.5829 28.5041L81.5027 28.2996L81.4991 27.0813L84.5998 27.0722L84.6177 33.1419L85.5872 33.3469L85.5908 34.5581L81.625 34.57L81.6215 33.3587Z" fill="#030404"/>
<path d="M88.9003 25.2245L88.9058 27.0583L90.2209 27.0544L90.225 28.4734L88.91 28.4773L88.9213 32.2907C88.9221 32.5815 88.9827 32.7892 89.103 32.9134C89.2234 33.0375 89.385 33.0994 89.5881 33.0985C89.7265 33.0982 89.8476 33.0918 89.9514 33.0805C90.0552 33.0686 90.1717 33.0486 90.3008 33.0205L90.4782 34.4804C90.2522 34.5501 90.0286 34.6026 89.8072 34.6381C89.5858 34.6731 89.3459 34.6913 89.0875 34.692C88.3908 34.694 87.8538 34.5041 87.4767 34.1223C87.0995 33.7404 86.9098 33.134 86.9073 32.3038L86.8959 28.4832L86.199 28.4868L86.1949 27.0678L86.8918 27.0642L86.8863 25.2304L88.9003 25.2245Z" fill="#030404"/>
<path d="M98.9655 28.2472L98.2668 28.3528L95.5337 35.6488C95.3184 36.189 95.0302 36.6425 94.6692 37.0079C94.308 37.3735 93.7629 37.5575 93.034 37.5599C92.8633 37.5603 92.7029 37.5469 92.5529 37.5193C92.4027 37.4922 92.2262 37.4536 92.023 37.4035L92.254 35.9282C92.3186 35.9377 92.3856 35.9464 92.4548 35.9558C92.524 35.9644 92.5839 35.9692 92.6347 35.9692C92.9715 35.968 93.2297 35.8852 93.4092 35.721C93.5887 35.5566 93.7265 35.3517 93.8227 35.1074L94.0494 34.5392L91.6572 28.3797L90.9578 28.2709L90.9543 27.0525L94.6224 27.0415L94.626 28.2598L93.789 28.4009L94.8222 31.3877L94.9275 31.9272L94.9691 31.9339L96.1421 28.3938L95.2973 28.2579L95.2938 27.0395L98.9619 27.0288L98.9655 28.2472Z" fill="#030404"/>
<path d="M137.628 11.7319L131.701 18.1233L134.263 6.94342L130.851 8.74979L128.293 1.79049L125.734 8.74979L122.322 6.94342L124.884 18.1233L118.831 11.5956L118.438 14.446L113.475 12.9985L115.766 18.4123L113.663 18.9858L120.756 24.2821C128.825 21.1696 133.888 22.0738 136.853 23.2763C136.417 24.9807 135.772 26.5655 134.918 28.0286C134.679 27.8976 134.429 27.7707 134.163 27.6502C133.133 27.1829 131.894 26.8038 130.404 26.5828C129.831 26.4978 129.219 26.4372 128.57 26.4028C128.388 26.3932 128.204 26.3857 128.017 26.3804C127.66 26.3704 127.292 26.3685 126.913 26.375C125.236 26.4039 123.337 26.5983 121.179 27.0124C121.097 27.028 121.017 27.0411 120.937 27.0557C120.545 27.127 120.163 27.1867 119.791 27.2354C114.37 27.9442 111.025 26.3394 109.02 24.509C108.811 23.9091 108.632 23.3011 108.485 22.6848C110.495 24.7832 114.039 26.6217 119.913 24.5911L111.978 18.666L114.738 17.9134L112.165 11.8334L117.812 13.4804L118.303 9.92076L123.523 15.55L121.222 5.51062L125.325 7.68286L127.827 0.879517C128.156 0.922778 128.483 0.970257 128.811 1.02141L131.259 7.68286L135.363 5.51062L133.062 15.55L137.632 10.6218L137.628 11.7319Z" fill="white"/>
<path d="M119.893 28.4958C114.302 28.9427 111.152 27.3836 109.374 25.453C109.662 26.1615 109.992 26.8582 110.365 27.5423C110.385 27.5782 110.405 27.613 110.426 27.6488C112.09 28.8707 114.886 30.0305 119.585 30.4107C124.518 30.8099 127.763 32.1381 129.897 33.6596C131.187 32.6638 132.318 31.5697 133.288 30.3795C130.872 29.0025 126.789 27.9445 119.893 28.4958Z" fill="white"/>
<path d="M110.426 27.6488C113.093 32.4726 117.38 35.2055 122.335 37.3607C122.629 37.4888 122.949 37.4954 123.242 37.3607C124.695 36.6875 126.308 36.0167 127.67 35.1872C128.458 34.7065 129.2 34.1971 129.897 33.6596C127.763 32.1381 124.518 30.8099 119.586 30.4107C114.886 30.0305 112.091 28.8707 110.426 27.6488Z" fill="#030404"/>
<path d="M121.179 27.0122C114.934 28.2101 111.192 26.4928 109.02 24.5108C109.13 24.8271 109.247 25.1414 109.374 25.453C111.152 27.3836 114.302 28.9426 119.893 28.4957C126.79 27.9445 130.872 29.0024 133.288 30.3794C133.896 29.6333 134.44 28.8491 134.919 28.0266C132.276 26.575 128.014 25.7011 121.179 27.0122Z" fill="#030404"/>
<path d="M135.363 5.51035L133.062 15.5497L137.632 10.6215C137.638 8.38224 137.634 6.14283 137.656 3.90439C137.661 3.49709 137.564 3.26943 137.135 3.1231C134.411 2.18866 131.64 1.46274 128.811 1.02115L131.259 7.6826L135.363 5.51035Z" fill="#030404"/>
<path d="M119.913 24.5909L111.978 18.6658L114.738 17.9132L112.165 11.8333L117.812 13.4802L118.303 9.92057L123.523 15.5498L121.222 5.51043L125.325 7.68268L127.827 0.87933C127.14 0.788806 126.449 0.714722 125.755 0.659672C119.878 0.194183 114.185 1.11683 108.635 3.04671C108.098 3.23457 107.914 3.47391 107.92 4.04409C107.952 6.56243 107.95 11.6026 107.95 11.6026C107.95 13.8732 107.927 16.1439 107.955 18.4146C107.974 19.878 108.154 21.3023 108.485 22.6863C110.495 24.785 114.039 26.6213 119.913 24.5909Z" fill="#030404"/>
<path d="M136.854 23.2769C137.23 21.8082 137.451 20.2507 137.51 18.6026C137.591 16.3138 137.618 14.023 137.627 11.7319L131.701 18.1233L134.263 6.94343L130.851 8.7498L128.293 1.7905L125.734 8.7498L122.322 6.94343L124.884 18.1233L118.83 11.5956L118.438 14.446L113.475 12.9985L115.765 18.4123L113.663 18.9858L120.756 24.2822C128.826 21.1692 133.889 22.0741 136.854 23.2769Z" fill="#E91E27"/>
<path d="M122.744 0C118.104 0 113.297 0.853325 108.457 2.53607C107.692 2.80375 107.37 3.25648 107.38 4.05043C107.411 6.53697 107.409 11.552 107.409 11.6024C107.409 12.3084 107.407 13.0142 107.405 13.7201C107.4 15.2602 107.395 16.8529 107.414 18.4213C107.433 19.906 107.616 21.382 107.958 22.8082C107.958 22.8092 107.958 22.8103 107.959 22.8112C107.959 22.8117 107.959 22.812 107.959 22.8124C108.109 23.4376 108.294 24.0681 108.508 24.6864C108.509 24.6894 108.51 24.6926 108.512 24.6956C108.546 24.7875 108.576 24.871 108.605 24.949C108.699 25.2061 108.772 25.4091 108.873 25.6566C109.169 26.3853 109.512 27.1069 109.891 27.8014C109.903 27.8237 109.915 27.846 109.928 27.8683C109.936 27.8822 109.945 27.8963 109.952 27.9104C111.245 30.2471 112.959 32.2175 115.193 33.9342C117.055 35.3644 119.255 36.6109 122.119 37.8566C122.338 37.9518 122.565 38 122.795 38C123.028 38 123.255 37.9501 123.468 37.8519C123.781 37.7069 124.094 37.5654 124.425 37.4156C125.62 36.8752 126.856 36.3164 127.951 35.649C128.75 35.1613 129.516 34.6361 130.226 34.0878C131.544 33.0714 132.715 31.9387 133.707 30.7211C134.33 29.9567 134.894 29.1436 135.383 28.3044C135.384 28.3024 135.385 28.3004 135.386 28.2983C136.255 26.8086 136.921 25.1771 137.368 23.4486C137.371 23.4362 137.375 23.4235 137.379 23.4107C137.765 21.9006 137.991 20.2893 138.049 18.6216C138.138 16.1332 138.159 13.6337 138.168 11.7342L138.172 10.6237C138.175 10.0006 138.175 9.37803 138.176 8.75539C138.179 7.16663 138.181 5.52379 138.196 3.90972C138.202 3.48479 138.115 2.88616 137.309 2.61146C134.391 1.61029 131.638 0.915188 128.894 0.486904C128.557 0.434233 128.221 0.385889 127.897 0.343277C127.186 0.249616 126.48 0.174775 125.798 0.120698C124.787 0.0406654 123.76 0 122.744 0ZM122.744 0.540764C123.743 0.540764 124.746 0.579807 125.755 0.659732C126.449 0.714781 127.14 0.788866 127.827 0.87939C128.155 0.922651 128.483 0.97013 128.811 1.02129C131.64 1.46287 134.411 2.18879 137.135 3.12323C137.564 3.26956 137.661 3.49723 137.655 3.90453C137.634 6.14297 137.638 8.38238 137.632 10.6217L137.627 11.7318C137.618 14.0229 137.591 16.3136 137.509 18.6025C137.451 20.2505 137.23 21.808 136.854 23.2767C136.854 23.2765 136.854 23.2764 136.853 23.2762C136.417 24.9798 135.771 26.5639 134.919 28.0266V28.027C134.919 28.0275 134.918 28.0281 134.918 28.0284C134.439 28.8503 133.895 29.6338 133.288 30.3794C132.318 31.5697 131.187 32.6637 129.897 33.6596C129.2 34.197 128.458 34.7064 127.67 35.1872C126.308 36.0167 124.694 36.6875 123.242 37.3607C123.097 37.4272 122.947 37.4592 122.795 37.4592C122.64 37.4592 122.484 37.4255 122.335 37.3607C117.38 35.2054 113.093 32.4725 110.426 27.6488C110.405 27.613 110.385 27.5782 110.365 27.5423C109.992 26.8582 109.662 26.1615 109.374 25.453C109.247 25.1414 109.164 24.9024 109.02 24.5089C108.811 23.9095 108.633 23.302 108.485 22.6863V22.6847C108.152 21.3013 107.974 19.8775 107.955 18.4146C107.927 16.144 107.95 13.8733 107.95 11.6026C107.95 11.6026 107.952 6.56249 107.92 4.04415C107.914 3.47397 108.098 3.23463 108.635 3.04677C113.232 1.44816 117.927 0.540764 122.744 0.540764Z" fill="white"/>
</svg>
